<svg xmlns="http://www.w3.org/2000/svg" xmlns:xlink="http://www.w3.org/1999/xlink" width="500" zoomAndPan="magnify" viewBox="0 0 375 374.999991" height="500" preserveAspectRatio="xMidYMid meet" version="1.0"><defs><g/><clipPath id="8362386ca4"><path d="M 151.367188 122.816406 L 176 122.816406 L 176 164 L 151.367188 164 Z M 151.367188 122.816406 " clip-rule="nonzero"/></clipPath><clipPath id="ca9ecd09fa"><path d="M 161 128 L 187.367188 128 L 187.367188 154 L 161 154 Z M 161 128 " clip-rule="nonzero"/></clipPath></defs><path fill="#000000" d="M 167.554688 160.683594 L 159.425781 160.683594 C 159.195312 160.683594 159.007812 160.5 159.007812 160.265625 C 159.007812 160.035156 159.195312 159.847656 159.425781 159.847656 L 167.554688 159.847656 C 167.789062 159.847656 167.976562 160.035156 167.976562 160.265625 C 167.976562 160.5 167.789062 160.683594 167.554688 160.683594 Z M 163.492188 126.265625 C 164.296875 126.265625 164.953125 126.921875 164.953125 127.726562 C 164.953125 128.53125 164.296875 129.1875 163.492188 129.1875 C 162.683594 129.1875 162.03125 128.53125 162.03125 127.726562 C 162.03125 126.921875 162.683594 126.265625 163.492188 126.265625 Z M 172.957031 154.015625 C 172.382812 153.933594 171.8125 153.8125 171.253906 153.65625 C 171.207031 153.644531 171.160156 153.632812 171.113281 153.617188 C 170.984375 153.582031 170.855469 153.539062 170.730469 153.5 C 170.621094 153.464844 170.515625 153.429688 170.410156 153.390625 C 170.300781 153.355469 170.195312 153.316406 170.09375 153.277344 C 169.957031 153.222656 169.820312 153.167969 169.683594 153.113281 C 169.605469 153.078125 169.523438 153.046875 169.445312 153.011719 C 169.226562 152.914062 169.011719 152.816406 168.800781 152.707031 C 164.546875 154.859375 159.519531 153.378906 159.304688 153.3125 C 159.113281 153.253906 158.992188 153.070312 159.007812 152.871094 C 159.027344 152.671875 159.1875 152.515625 159.386719 152.496094 C 159.503906 152.484375 162.273438 152.15625 164.269531 148.960938 C 162.449219 146.617188 161.449219 143.707031 161.449219 140.734375 C 161.449219 140.507812 161.457031 140.285156 161.464844 140.0625 C 161.46875 139.988281 161.476562 139.917969 161.484375 139.84375 C 161.492188 139.695312 161.5 139.546875 161.515625 139.402344 C 161.523438 139.3125 161.539062 139.226562 161.546875 139.140625 C 161.5625 139.011719 161.578125 138.878906 161.597656 138.75 C 161.613281 138.65625 161.628906 138.5625 161.644531 138.472656 C 161.664062 138.351562 161.6875 138.226562 161.710938 138.105469 C 161.730469 138.011719 161.75 137.917969 161.769531 137.824219 C 161.796875 137.707031 161.824219 137.589844 161.851562 137.476562 C 161.875 137.378906 161.902344 137.285156 161.929688 137.191406 C 161.957031 137.078125 161.988281 136.964844 162.023438 136.855469 C 162.050781 136.757812 162.082031 136.664062 162.113281 136.570312 C 162.148438 136.460938 162.183594 136.355469 162.222656 136.25 C 162.257812 136.152344 162.292969 136.058594 162.328125 135.964844 C 162.367188 135.859375 162.410156 135.757812 162.449219 135.652344 C 162.488281 135.558594 162.53125 135.464844 162.570312 135.371094 C 162.613281 135.273438 162.660156 135.171875 162.703125 135.074219 C 162.75 134.980469 162.792969 134.886719 162.839844 134.792969 C 162.886719 134.699219 162.933594 134.605469 162.984375 134.511719 C 163.035156 134.417969 163.082031 134.324219 163.132812 134.234375 C 163.183594 134.144531 163.238281 134.054688 163.289062 133.964844 C 163.34375 133.871094 163.398438 133.777344 163.453125 133.6875 C 163.507812 133.601562 163.5625 133.519531 163.617188 133.433594 C 163.675781 133.34375 163.734375 133.25 163.796875 133.160156 C 163.851562 133.082031 163.910156 133.003906 163.964844 132.925781 C 164.03125 132.832031 164.097656 132.738281 164.164062 132.648438 C 164.21875 132.578125 164.277344 132.507812 164.332031 132.4375 C 164.40625 132.34375 164.480469 132.25 164.554688 132.15625 C 164.601562 132.097656 164.652344 132.042969 164.703125 131.988281 C 164.789062 131.886719 164.878906 131.78125 164.96875 131.683594 C 164.976562 131.671875 164.988281 131.664062 164.996094 131.652344 C 165.375 131.242188 165.777344 130.855469 166.203125 130.496094 C 166.234375 130.46875 166.261719 130.445312 166.292969 130.417969 C 166.410156 130.320312 166.527344 130.230469 166.648438 130.136719 C 166.691406 130.101562 166.734375 130.066406 166.78125 130.03125 C 166.894531 129.945312 167.011719 129.859375 167.132812 129.777344 C 167.183594 129.738281 167.234375 129.703125 167.285156 129.667969 C 167.402344 129.585938 167.523438 129.507812 167.640625 129.433594 C 167.695312 129.398438 167.75 129.359375 167.808594 129.324219 C 167.925781 129.25 168.046875 129.179688 168.171875 129.109375 C 168.226562 129.078125 168.285156 129.042969 168.34375 129.007812 C 168.46875 128.941406 168.59375 128.875 168.71875 128.808594 C 168.777344 128.777344 168.835938 128.746094 168.894531 128.71875 C 169.023438 128.65625 169.152344 128.59375 169.28125 128.535156 C 169.339844 128.507812 169.402344 128.476562 169.460938 128.453125 C 169.59375 128.394531 169.726562 128.339844 169.859375 128.285156 C 169.917969 128.257812 169.980469 128.234375 170.039062 128.210938 C 170.175781 128.160156 170.3125 128.109375 170.449219 128.0625 C 170.511719 128.039062 170.570312 128.019531 170.628906 128 C 170.769531 127.953125 170.914062 127.90625 171.054688 127.863281 C 171.113281 127.847656 171.171875 127.832031 171.230469 127.816406 C 171.378906 127.773438 171.523438 127.734375 171.671875 127.695312 C 171.726562 127.683594 171.78125 127.671875 171.835938 127.660156 C 171.992188 127.625 172.144531 127.589844 172.300781 127.558594 C 172.347656 127.546875 172.394531 127.542969 172.441406 127.53125 C 172.609375 127.503906 172.773438 127.472656 172.941406 127.449219 C 172.972656 127.445312 173.007812 127.441406 173.039062 127.4375 C 173.222656 127.410156 173.40625 127.386719 173.589844 127.371094 C 173.585938 127.28125 173.574219 127.191406 173.558594 127.101562 L 173.558594 127.097656 C 173.546875 127.011719 173.527344 126.925781 173.503906 126.839844 L 173.503906 126.835938 C 173.480469 126.753906 173.457031 126.671875 173.425781 126.59375 L 173.421875 126.578125 C 173.394531 126.5 173.359375 126.425781 173.324219 126.351562 L 173.316406 126.332031 C 173.28125 126.261719 173.246094 126.195312 173.203125 126.125 C 173.199219 126.117188 173.191406 126.105469 173.1875 126.097656 C 173.148438 126.035156 173.105469 125.972656 173.0625 125.910156 C 173.054688 125.898438 173.046875 125.886719 173.035156 125.875 C 172.996094 125.820312 172.949219 125.765625 172.902344 125.710938 C 172.890625 125.695312 172.878906 125.683594 172.863281 125.667969 C 172.820312 125.617188 172.773438 125.570312 172.726562 125.527344 C 172.710938 125.507812 172.691406 125.492188 172.671875 125.476562 C 172.625 125.433594 172.582031 125.394531 172.53125 125.355469 C 172.507812 125.335938 172.484375 125.320312 172.460938 125.304688 C 172.417969 125.269531 172.371094 125.234375 172.320312 125.203125 C 172.292969 125.183594 172.261719 125.167969 172.234375 125.148438 C 172.1875 125.121094 172.144531 125.09375 172.097656 125.070312 C 172.0625 125.050781 172.027344 125.035156 171.992188 125.019531 C 171.945312 125 171.902344 124.976562 171.855469 124.957031 C 171.816406 124.941406 171.773438 124.925781 171.734375 124.914062 C 171.691406 124.898438 171.648438 124.878906 171.605469 124.867188 C 171.558594 124.851562 171.507812 124.84375 171.460938 124.832031 C 171.421875 124.820312 171.382812 124.808594 171.34375 124.800781 C 171.285156 124.789062 171.222656 124.78125 171.164062 124.773438 C 171.132812 124.769531 171.101562 124.761719 171.070312 124.761719 C 170.976562 124.75 170.882812 124.746094 170.789062 124.746094 L 156.195312 124.746094 C 154.644531 124.746094 153.382812 126.007812 153.382812 127.558594 L 153.382812 159.066406 C 153.382812 160.617188 154.644531 161.878906 156.195312 161.878906 L 170.789062 161.878906 C 172.339844 161.878906 173.601562 160.617188 173.601562 159.066406 L 173.601562 154.09375 C 173.394531 154.074219 173.191406 154.050781 172.988281 154.019531 C 172.976562 154.019531 172.964844 154.019531 172.957031 154.015625 " fill-opacity="1" fill-rule="nonzero"/><g clip-path="url(#8362386ca4)"><path fill="#000000" d="M 174.9375 154.160156 C 174.917969 154.160156 174.898438 154.160156 174.875 154.160156 C 174.832031 154.160156 174.789062 154.15625 174.746094 154.15625 C 174.644531 154.15625 174.542969 154.15625 174.4375 154.152344 L 174.4375 159.066406 C 174.4375 161.078125 172.800781 162.714844 170.789062 162.714844 L 156.195312 162.714844 C 154.183594 162.714844 152.542969 161.078125 152.542969 159.066406 L 152.542969 127.558594 C 152.542969 125.546875 154.183594 123.910156 156.195312 123.910156 L 170.789062 123.910156 C 172.71875 123.910156 174.304688 125.417969 174.429688 127.316406 C 174.574219 127.3125 174.710938 127.308594 174.847656 127.308594 C 174.855469 127.308594 174.867188 127.308594 174.875 127.308594 C 174.886719 127.308594 174.894531 127.308594 174.902344 127.308594 C 175.082031 127.308594 175.261719 127.3125 175.449219 127.320312 C 175.492188 127.324219 175.535156 127.324219 175.574219 127.324219 L 175.574219 127.21875 C 175.574219 124.789062 173.601562 122.816406 171.175781 122.816406 L 155.808594 122.816406 C 153.382812 122.816406 151.40625 124.789062 151.40625 127.21875 L 151.40625 159.40625 C 151.40625 161.832031 153.382812 163.808594 155.808594 163.808594 L 171.175781 163.808594 C 173.601562 163.808594 175.574219 161.832031 175.574219 159.40625 L 175.574219 154.144531 C 175.480469 154.148438 175.382812 154.148438 175.289062 154.152344 C 175.171875 154.15625 175.050781 154.160156 174.9375 154.160156 " fill-opacity="1" fill-rule="nonzero"/></g><g clip-path="url(#ca9ecd09fa)"><path fill="#000000" d="M 168.101562 132.871094 C 168.101562 132.585938 168.261719 132.335938 168.515625 132.214844 C 168.773438 132.09375 169.070312 132.125 169.289062 132.304688 L 169.433594 132.421875 C 169.980469 132.863281 170.445312 133.359375 170.8125 133.890625 C 173.144531 137.253906 173.144531 141.246094 173.140625 141.652344 C 173.167969 141.988281 173.058594 142.324219 172.835938 142.574219 C 172.601562 142.835938 172.269531 142.984375 171.921875 142.984375 L 171.746094 142.984375 L 171.746094 148.476562 C 171.746094 149.09375 171.246094 149.59375 170.628906 149.59375 L 169.222656 149.59375 C 168.605469 149.59375 168.101562 149.09375 168.101562 148.476562 Z M 174.949219 132.71875 C 174.949219 132.292969 175.296875 131.945312 175.722656 131.945312 L 176.476562 131.945312 C 176.902344 131.945312 177.25 132.292969 177.25 132.71875 L 177.25 135.621094 L 177.371094 135.621094 L 177.371094 132.71875 C 177.371094 132.292969 177.714844 131.945312 178.144531 131.945312 L 178.894531 131.945312 C 179.324219 131.945312 179.667969 132.292969 179.667969 132.71875 L 179.667969 135.621094 L 179.789062 135.621094 L 179.789062 132.71875 C 179.789062 132.292969 180.136719 131.945312 180.5625 131.945312 L 181.316406 131.945312 C 181.742188 131.945312 182.089844 132.292969 182.089844 132.71875 L 182.089844 137.9375 C 182.089844 138.925781 181.464844 139.820312 180.539062 140.160156 C 180.417969 140.207031 180.339844 140.308594 180.339844 140.421875 L 180.339844 148.433594 C 180.339844 149.050781 179.839844 149.550781 179.222656 149.550781 L 177.816406 149.550781 C 177.199219 149.550781 176.699219 149.050781 176.699219 148.433594 L 176.699219 140.421875 C 176.699219 140.308594 176.621094 140.207031 176.5 140.160156 C 175.574219 139.820312 174.949219 138.925781 174.949219 137.9375 Z M 162.285156 140.734375 C 162.285156 143.613281 163.285156 146.433594 165.101562 148.667969 C 165.210938 148.800781 165.226562 148.992188 165.136719 149.140625 C 163.890625 151.269531 162.308594 152.324219 161.132812 152.839844 C 162.941406 153.113281 165.992188 153.261719 168.601562 151.867188 C 168.664062 151.832031 168.730469 151.816406 168.800781 151.816406 C 168.867188 151.816406 168.933594 151.832031 168.996094 151.867188 C 170.5625 152.695312 172.304688 153.183594 174.078125 153.296875 C 174.117188 153.300781 174.15625 153.300781 174.195312 153.304688 C 174.394531 153.3125 174.59375 153.320312 174.792969 153.320312 C 174.835938 153.320312 174.882812 153.324219 174.925781 153.324219 C 175.074219 153.324219 175.222656 153.316406 175.367188 153.3125 C 175.554688 153.304688 175.742188 153.292969 175.945312 153.277344 C 182.390625 152.730469 187.464844 147.316406 187.464844 140.734375 C 187.464844 134.152344 182.390625 128.738281 175.945312 128.191406 C 175.761719 128.175781 175.589844 128.164062 175.417969 128.15625 C 175.238281 128.148438 175.058594 128.144531 174.878906 128.144531 L 174.875 128.144531 C 174.703125 128.144531 174.53125 128.148438 174.363281 128.15625 C 174.261719 128.160156 174.160156 128.167969 174.046875 128.175781 C 167.492188 128.601562 162.285156 134.070312 162.285156 140.734375 " fill-opacity="1" fill-rule="nonzero"/></g><g fill="#000000" fill-opacity="1"><g transform="translate(84.096261, 198.743526)"><g><path d="M 25.546875 -8.703125 C 27.015625 -8.703125 28.441406 -8.921875 29.828125 -9.359375 C 31.210938 -9.804688 32.226562 -10.238281 32.875 -10.65625 L 33.84375 -11.3125 L 37.9375 -3.125 C 37.800781 -3.019531 37.613281 -2.878906 37.375 -2.703125 C 37.132812 -2.535156 36.578125 -2.222656 35.703125 -1.765625 C 34.835938 -1.304688 33.910156 -0.90625 32.921875 -0.5625 C 31.929688 -0.21875 30.632812 0.0859375 29.03125 0.359375 C 27.425781 0.628906 25.769531 0.765625 24.0625 0.765625 C 20.132812 0.765625 16.410156 -0.195312 12.890625 -2.125 C 9.378906 -4.050781 6.546875 -6.703125 4.390625 -10.078125 C 2.242188 -13.460938 1.171875 -17.117188 1.171875 -21.046875 C 1.171875 -24.015625 1.800781 -26.863281 3.0625 -29.59375 C 4.332031 -32.320312 6.015625 -34.660156 8.109375 -36.609375 C 10.210938 -38.554688 12.660156 -40.109375 15.453125 -41.265625 C 18.253906 -42.429688 21.125 -43.015625 24.0625 -43.015625 C 26.789062 -43.015625 29.304688 -42.6875 31.609375 -42.03125 C 33.921875 -41.382812 35.550781 -40.738281 36.5 -40.09375 L 37.9375 -39.125 L 33.84375 -30.921875 C 33.601562 -31.128906 33.242188 -31.378906 32.765625 -31.671875 C 32.285156 -31.960938 31.328125 -32.34375 29.890625 -32.8125 C 28.460938 -33.289062 27.015625 -33.53125 25.546875 -33.53125 C 23.222656 -33.53125 21.140625 -33.15625 19.296875 -32.40625 C 17.453125 -31.65625 15.992188 -30.664062 14.921875 -29.4375 C 13.847656 -28.207031 13.03125 -26.882812 12.46875 -25.46875 C 11.90625 -24.050781 11.625 -22.609375 11.625 -21.140625 C 11.625 -17.929688 12.828125 -15.054688 15.234375 -12.515625 C 17.640625 -9.972656 21.078125 -8.703125 25.546875 -8.703125 Z M 25.546875 -8.703125 "/></g></g></g><g fill="#000000" fill-opacity="1"><g transform="translate(117.835164, 198.743526)"><g><path d="M 5.546875 -3.125 C 2.628906 -5.71875 1.171875 -9.046875 1.171875 -13.109375 C 1.171875 -17.171875 2.691406 -20.503906 5.734375 -23.109375 C 8.773438 -25.722656 12.53125 -27.03125 17 -27.03125 C 21.40625 -27.03125 25.117188 -25.71875 28.140625 -23.09375 C 31.160156 -20.46875 32.671875 -17.140625 32.671875 -13.109375 C 32.671875 -9.078125 31.191406 -5.753906 28.234375 -3.140625 C 25.285156 -0.535156 21.539062 0.765625 17 0.765625 C 12.289062 0.765625 8.472656 -0.53125 5.546875 -3.125 Z M 12.5625 -17.5625 C 11.382812 -16.40625 10.796875 -14.921875 10.796875 -13.109375 C 10.796875 -11.296875 11.359375 -9.816406 12.484375 -8.671875 C 13.617188 -7.535156 15.109375 -6.96875 16.953125 -6.96875 C 18.722656 -6.96875 20.179688 -7.546875 21.328125 -8.703125 C 22.472656 -9.867188 23.046875 -11.335938 23.046875 -13.109375 C 23.046875 -14.921875 22.457031 -16.40625 21.28125 -17.5625 C 20.101562 -18.71875 18.660156 -19.296875 16.953125 -19.296875 C 15.210938 -19.296875 13.75 -18.71875 12.5625 -17.5625 Z M 12.5625 -17.5625 "/></g></g></g><g fill="#000000" fill-opacity="1"><g transform="translate(146.863736, 198.743526)"><g><path d="M 3.078125 0 L 3.078125 -26.265625 L 12.140625 -26.265625 L 12.140625 -23.5 L 12.234375 -23.5 C 14.585938 -25.851562 17.097656 -27.03125 19.765625 -27.03125 C 21.671875 -27.03125 23.460938 -26.640625 25.140625 -25.859375 C 26.816406 -25.078125 28.082031 -23.863281 28.9375 -22.21875 C 31.59375 -25.425781 34.492188 -27.03125 37.640625 -27.03125 C 40.429688 -27.03125 42.832031 -26.242188 44.84375 -24.671875 C 46.863281 -23.109375 47.875 -20.65625 47.875 -17.3125 L 47.875 0 L 38.8125 0 L 38.8125 -14.84375 C 38.8125 -16.25 38.425781 -17.421875 37.65625 -18.359375 C 36.882812 -19.296875 35.734375 -19.765625 34.203125 -19.765625 C 32.867188 -19.765625 31.851562 -19.363281 31.15625 -18.5625 C 30.457031 -17.757812 30.070312 -16.796875 30 -15.671875 L 30 0 L 20.9375 0 L 20.9375 -14.84375 C 20.9375 -16.25 20.550781 -17.421875 19.78125 -18.359375 C 19.019531 -19.296875 17.867188 -19.765625 16.328125 -19.765625 C 14.929688 -19.765625 13.882812 -19.328125 13.1875 -18.453125 C 12.488281 -17.585938 12.140625 -16.554688 12.140625 -15.359375 L 12.140625 0 Z M 3.078125 0 "/></g></g></g><g fill="#000000" fill-opacity="1"><g transform="translate(192.480867, 198.743526)"><g><path d="M 4.609375 -26.265625 L 4.609375 -31.84375 C 4.640625 -35.769531 5.5625 -38.910156 7.375 -41.265625 C 9.1875 -43.617188 11.695312 -44.796875 14.90625 -44.796875 C 16.269531 -44.796875 17.570312 -44.597656 18.8125 -44.203125 C 20.0625 -43.816406 20.957031 -43.421875 21.5 -43.015625 L 22.375 -42.453125 L 19.203125 -36.046875 C 18.378906 -36.523438 17.472656 -36.765625 16.484375 -36.765625 C 15.359375 -36.765625 14.609375 -36.378906 14.234375 -35.609375 C 13.859375 -34.835938 13.671875 -33.5 13.671875 -31.59375 L 13.671875 -26.265625 L 19.71875 -26.265625 L 19.71875 -19.359375 L 13.671875 -19.359375 L 13.671875 0 L 4.609375 0 L 4.609375 -19.359375 L 0.8125 -19.359375 L 0.8125 -26.265625 Z M 4.609375 -26.265625 "/></g></g></g><g fill="#000000" fill-opacity="1"><g transform="translate(206.866455, 198.743526)"><g><path d="M 5.546875 -3.125 C 2.628906 -5.71875 1.171875 -9.046875 1.171875 -13.109375 C 1.171875 -17.171875 2.691406 -20.503906 5.734375 -23.109375 C 8.773438 -25.722656 12.53125 -27.03125 17 -27.03125 C 21.40625 -27.03125 25.117188 -25.71875 28.140625 -23.09375 C 31.160156 -20.46875 32.671875 -17.140625 32.671875 -13.109375 C 32.671875 -9.078125 31.191406 -5.753906 28.234375 -3.140625 C 25.285156 -0.535156 21.539062 0.765625 17 0.765625 C 12.289062 0.765625 8.472656 -0.53125 5.546875 -3.125 Z M 12.5625 -17.5625 C 11.382812 -16.40625 10.796875 -14.921875 10.796875 -13.109375 C 10.796875 -11.296875 11.359375 -9.816406 12.484375 -8.671875 C 13.617188 -7.535156 15.109375 -6.96875 16.953125 -6.96875 C 18.722656 -6.96875 20.179688 -7.546875 21.328125 -8.703125 C 22.472656 -9.867188 23.046875 -11.335938 23.046875 -13.109375 C 23.046875 -14.921875 22.457031 -16.40625 21.28125 -17.5625 C 20.101562 -18.71875 18.660156 -19.296875 16.953125 -19.296875 C 15.210938 -19.296875 13.75 -18.71875 12.5625 -17.5625 Z M 12.5625 -17.5625 "/></g></g></g><g fill="#000000" fill-opacity="1"><g transform="translate(235.895033, 198.743526)"><g><path d="M 3.078125 0 L 3.078125 -26.265625 L 12.140625 -26.265625 L 12.140625 -22.484375 L 12.234375 -22.484375 C 12.304688 -22.617188 12.414062 -22.785156 12.5625 -22.984375 C 12.71875 -23.191406 13.050781 -23.550781 13.5625 -24.0625 C 14.082031 -24.570312 14.628906 -25.03125 15.203125 -25.4375 C 15.785156 -25.851562 16.535156 -26.222656 17.453125 -26.546875 C 18.378906 -26.867188 19.320312 -27.03125 20.28125 -27.03125 C 21.269531 -27.03125 22.238281 -26.894531 23.1875 -26.625 C 24.144531 -26.351562 24.847656 -26.082031 25.296875 -25.8125 L 26.015625 -25.390625 L 22.21875 -17.71875 C 21.09375 -18.675781 19.523438 -19.15625 17.515625 -19.15625 C 16.421875 -19.15625 15.476562 -18.914062 14.6875 -18.4375 C 13.90625 -17.957031 13.351562 -17.375 13.03125 -16.6875 C 12.707031 -16.007812 12.476562 -15.429688 12.34375 -14.953125 C 12.207031 -14.472656 12.140625 -14.097656 12.140625 -13.828125 L 12.140625 0 Z M 3.078125 0 "/></g></g></g><g fill="#000000" fill-opacity="1"><g transform="translate(256.578122, 198.743526)"><g><path d="M 4.609375 -26.265625 L 4.609375 -36.046875 L 13.671875 -36.046875 L 13.671875 -26.265625 L 19.203125 -26.265625 L 19.203125 -19.359375 L 13.671875 -19.359375 L 13.671875 -11.015625 C 13.671875 -8.585938 14.351562 -7.375 15.71875 -7.375 C 16.0625 -7.375 16.421875 -7.441406 16.796875 -7.578125 C 17.171875 -7.710938 17.460938 -7.847656 17.671875 -7.984375 L 17.96875 -8.1875 L 20.21875 -0.875 C 18.28125 0.21875 16.0625 0.765625 13.5625 0.765625 C 11.863281 0.765625 10.398438 0.46875 9.171875 -0.125 C 7.941406 -0.726562 7.007812 -1.53125 6.375 -2.53125 C 5.738281 -3.539062 5.285156 -4.597656 5.015625 -5.703125 C 4.742188 -6.816406 4.609375 -8.003906 4.609375 -9.265625 L 4.609375 -19.359375 L 0.8125 -19.359375 L 0.8125 -26.265625 Z M 4.609375 -26.265625 "/></g></g></g><g fill="#000000" fill-opacity="1"><g transform="translate(271.987683, 198.743526)"><g/></g></g><g fill="#000000" fill-opacity="1"><g transform="translate(281.150944, 198.743526)"><g><path d="M 8.90625 -10.953125 C 10.539062 -10.953125 11.929688 -10.378906 13.078125 -9.234375 C 14.222656 -8.097656 14.796875 -6.707031 14.796875 -5.0625 C 14.796875 -3.457031 14.222656 -2.082031 13.078125 -0.9375 C 11.929688 0.195312 10.539062 0.765625 8.90625 0.765625 C 7.300781 0.765625 5.925781 0.195312 4.78125 -0.9375 C 3.644531 -2.082031 3.078125 -3.457031 3.078125 -5.0625 C 3.078125 -6.707031 3.644531 -8.097656 4.78125 -9.234375 C 5.925781 -10.378906 7.300781 -10.953125 8.90625 -10.953125 Z M 8.90625 -10.953125 "/></g></g></g><g fill="#000000" fill-opacity="1"><g transform="translate(138.155167, 212.619406)"><g><path d="M 3.75 -7.21875 C 4.113281 -7.21875 4.445312 -7.117188 4.75 -6.921875 C 5.0625 -6.722656 5.304688 -6.457031 5.484375 -6.125 C 5.671875 -5.789062 5.765625 -5.421875 5.765625 -5.015625 C 5.765625 -4.609375 5.671875 -4.234375 5.484375 -3.890625 C 5.304688 -3.546875 5.0625 -3.273438 4.75 -3.078125 C 4.445312 -2.878906 4.113281 -2.78125 3.75 -2.78125 L 1.8125 -2.78125 L 1.8125 -0.5 C 1.8125 -0.351562 1.765625 -0.234375 1.671875 -0.140625 C 1.578125 -0.046875 1.460938 0 1.328125 0 C 1.179688 0 1.066406 -0.046875 0.984375 -0.140625 C 0.898438 -0.234375 0.859375 -0.351562 0.859375 -0.5 L 0.859375 -6.71875 C 0.859375 -6.863281 0.90625 -6.984375 1 -7.078125 C 1.09375 -7.171875 1.207031 -7.21875 1.34375 -7.21875 Z M 3.75 -3.71875 C 3.925781 -3.71875 4.09375 -3.773438 4.25 -3.890625 C 4.414062 -4.015625 4.546875 -4.175781 4.640625 -4.375 C 4.734375 -4.570312 4.78125 -4.785156 4.78125 -5.015625 C 4.78125 -5.359375 4.675781 -5.648438 4.46875 -5.890625 C 4.269531 -6.140625 4.03125 -6.265625 3.75 -6.265625 L 1.8125 -6.265625 L 1.8125 -3.71875 Z M 3.75 -3.71875 "/></g></g></g><g fill="#000000" fill-opacity="1"><g transform="translate(151.055845, 212.619406)"><g><path d="M 5.109375 -5.46875 C 5.253906 -5.46875 5.375 -5.421875 5.46875 -5.328125 C 5.5625 -5.242188 5.609375 -5.125 5.609375 -4.96875 L 5.609375 -0.5 C 5.609375 -0.351562 5.5625 -0.234375 5.46875 -0.140625 C 5.375 -0.046875 5.253906 0 5.109375 0 C 4.972656 0 4.859375 -0.046875 4.765625 -0.140625 C 4.671875 -0.234375 4.625 -0.351562 4.625 -0.5 L 4.625 -0.765625 C 4.445312 -0.523438 4.203125 -0.316406 3.890625 -0.140625 C 3.585938 0.0234375 3.253906 0.109375 2.890625 0.109375 C 2.429688 0.109375 2.007812 -0.0078125 1.625 -0.25 C 1.238281 -0.5 0.9375 -0.835938 0.71875 -1.265625 C 0.507812 -1.691406 0.40625 -2.175781 0.40625 -2.71875 C 0.40625 -3.25 0.507812 -3.726562 0.71875 -4.15625 C 0.9375 -4.59375 1.234375 -4.929688 1.609375 -5.171875 C 1.992188 -5.410156 2.410156 -5.53125 2.859375 -5.53125 C 3.222656 -5.53125 3.5625 -5.453125 3.875 -5.296875 C 4.195312 -5.148438 4.445312 -4.957031 4.625 -4.71875 L 4.625 -4.96875 C 4.625 -5.113281 4.671875 -5.234375 4.765625 -5.328125 C 4.859375 -5.421875 4.972656 -5.46875 5.109375 -5.46875 Z M 3.015625 -0.796875 C 3.335938 -0.796875 3.625 -0.878906 3.875 -1.046875 C 4.125 -1.210938 4.316406 -1.441406 4.453125 -1.734375 C 4.597656 -2.023438 4.671875 -2.351562 4.671875 -2.71875 C 4.671875 -3.070312 4.597656 -3.390625 4.453125 -3.671875 C 4.316406 -3.960938 4.125 -4.191406 3.875 -4.359375 C 3.625 -4.535156 3.335938 -4.625 3.015625 -4.625 C 2.691406 -4.625 2.40625 -4.539062 2.15625 -4.375 C 1.90625 -4.207031 1.707031 -3.976562 1.5625 -3.6875 C 1.414062 -3.40625 1.34375 -3.082031 1.34375 -2.71875 C 1.34375 -2.351562 1.414062 -2.023438 1.5625 -1.734375 C 1.707031 -1.441406 1.90625 -1.210938 2.15625 -1.046875 C 2.40625 -0.878906 2.691406 -0.796875 3.015625 -0.796875 Z M 3.015625 -0.796875 "/></g></g></g><g fill="#000000" fill-opacity="1"><g transform="translate(164.100741, 212.619406)"><g><path d="M 3.484375 -5.53125 C 4.722656 -5.53125 5.34375 -4.785156 5.34375 -3.296875 L 5.34375 -0.5 C 5.34375 -0.351562 5.296875 -0.234375 5.203125 -0.140625 C 5.109375 -0.046875 4.988281 0 4.84375 0 C 4.707031 0 4.59375 -0.046875 4.5 -0.140625 C 4.40625 -0.234375 4.359375 -0.351562 4.359375 -0.5 L 4.359375 -3.296875 C 4.359375 -3.691406 4.265625 -4.007812 4.078125 -4.25 C 3.898438 -4.5 3.597656 -4.625 3.171875 -4.625 C 2.898438 -4.625 2.648438 -4.5625 2.421875 -4.4375 C 2.203125 -4.320312 2.03125 -4.160156 1.90625 -3.953125 C 1.78125 -3.753906 1.71875 -3.535156 1.71875 -3.296875 L 1.71875 -0.5 C 1.71875 -0.351562 1.671875 -0.234375 1.578125 -0.140625 C 1.484375 -0.046875 1.363281 0 1.21875 0 C 1.070312 0 0.953125 -0.046875 0.859375 -0.140625 C 0.773438 -0.234375 0.734375 -0.351562 0.734375 -0.5 L 0.734375 -4.90625 C 0.734375 -5.039062 0.78125 -5.15625 0.875 -5.25 C 0.96875 -5.351562 1.082031 -5.40625 1.21875 -5.40625 C 1.363281 -5.40625 1.484375 -5.351562 1.578125 -5.25 C 1.671875 -5.15625 1.71875 -5.039062 1.71875 -4.90625 L 1.71875 -4.546875 C 1.894531 -4.816406 2.140625 -5.046875 2.453125 -5.234375 C 2.773438 -5.429688 3.117188 -5.53125 3.484375 -5.53125 Z M 3.484375 -5.53125 "/></g></g></g><g fill="#000000" fill-opacity="1"><g transform="translate(176.888111, 212.619406)"><g><path d="M 2.203125 -4.4375 L 2.203125 -1.375 C 2.203125 -1.03125 2.351562 -0.859375 2.65625 -0.859375 C 2.707031 -0.859375 2.773438 -0.867188 2.859375 -0.890625 C 2.941406 -0.910156 3.003906 -0.921875 3.046875 -0.921875 C 3.140625 -0.921875 3.21875 -0.882812 3.28125 -0.8125 C 3.34375 -0.738281 3.375 -0.644531 3.375 -0.53125 C 3.375 -0.382812 3.289062 -0.257812 3.125 -0.15625 C 2.957031 -0.0507812 2.769531 0 2.5625 0 C 2.34375 0 2.132812 -0.0195312 1.9375 -0.0625 C 1.75 -0.113281 1.582031 -0.238281 1.4375 -0.4375 C 1.289062 -0.632812 1.21875 -0.929688 1.21875 -1.328125 L 1.21875 -4.4375 L 0.625 -4.4375 C 0.488281 -4.4375 0.378906 -4.476562 0.296875 -4.5625 C 0.210938 -4.65625 0.171875 -4.769531 0.171875 -4.90625 C 0.171875 -5.03125 0.210938 -5.132812 0.296875 -5.21875 C 0.378906 -5.300781 0.488281 -5.34375 0.625 -5.34375 L 1.21875 -5.34375 L 1.21875 -6.203125 C 1.21875 -6.347656 1.265625 -6.46875 1.359375 -6.5625 C 1.453125 -6.65625 1.570312 -6.703125 1.71875 -6.703125 C 1.851562 -6.703125 1.96875 -6.65625 2.0625 -6.5625 C 2.15625 -6.46875 2.203125 -6.347656 2.203125 -6.203125 L 2.203125 -5.34375 L 3.046875 -5.34375 C 3.179688 -5.34375 3.289062 -5.296875 3.375 -5.203125 C 3.457031 -5.117188 3.5 -5.015625 3.5 -4.890625 C 3.5 -4.753906 3.457031 -4.644531 3.375 -4.5625 C 3.289062 -4.476562 3.179688 -4.4375 3.046875 -4.4375 Z M 2.203125 -4.4375 "/></g></g></g><g fill="#000000" fill-opacity="1"><g transform="translate(187.52263, 212.619406)"><g><path d="M 3.421875 -5.53125 C 3.597656 -5.53125 3.75 -5.484375 3.875 -5.390625 C 4.007812 -5.296875 4.078125 -5.179688 4.078125 -5.046875 C 4.078125 -4.878906 4.035156 -4.75 3.953125 -4.65625 C 3.867188 -4.570312 3.765625 -4.53125 3.640625 -4.53125 C 3.578125 -4.53125 3.484375 -4.550781 3.359375 -4.59375 C 3.210938 -4.644531 3.097656 -4.671875 3.015625 -4.671875 C 2.804688 -4.671875 2.597656 -4.597656 2.390625 -4.453125 C 2.191406 -4.304688 2.03125 -4.101562 1.90625 -3.84375 C 1.78125 -3.582031 1.71875 -3.296875 1.71875 -2.984375 L 1.71875 -0.5 C 1.71875 -0.351562 1.671875 -0.234375 1.578125 -0.140625 C 1.484375 -0.046875 1.363281 0 1.21875 0 C 1.070312 0 0.953125 -0.046875 0.859375 -0.140625 C 0.773438 -0.234375 0.734375 -0.351562 0.734375 -0.5 L 0.734375 -4.90625 C 0.734375 -5.039062 0.78125 -5.15625 0.875 -5.25 C 0.96875 -5.351562 1.082031 -5.40625 1.21875 -5.40625 C 1.363281 -5.40625 1.484375 -5.351562 1.578125 -5.25 C 1.671875 -5.15625 1.71875 -5.039062 1.71875 -4.90625 L 1.71875 -4.390625 C 1.863281 -4.722656 2.085938 -4.992188 2.390625 -5.203125 C 2.691406 -5.410156 3.035156 -5.519531 3.421875 -5.53125 Z M 3.421875 -5.53125 "/></g></g></g><g fill="#000000" fill-opacity="1"><g transform="translate(198.497073, 212.619406)"><g><path d="M 4.75 -5.453125 C 4.894531 -5.453125 5.015625 -5.40625 5.109375 -5.3125 C 5.203125 -5.21875 5.25 -5.097656 5.25 -4.953125 L 5.25 -0.5 C 5.25 0.351562 5.007812 0.992188 4.53125 1.421875 C 4.0625 1.847656 3.4375 2.0625 2.65625 2.0625 C 2.40625 2.0625 2.15625 2.035156 1.90625 1.984375 C 1.65625 1.941406 1.453125 1.878906 1.296875 1.796875 C 1.046875 1.679688 0.921875 1.519531 0.921875 1.3125 C 0.921875 1.28125 0.925781 1.238281 0.9375 1.1875 C 0.976562 1.070312 1.035156 0.984375 1.109375 0.921875 C 1.191406 0.859375 1.28125 0.828125 1.375 0.828125 C 1.425781 0.828125 1.476562 0.835938 1.53125 0.859375 C 1.738281 0.953125 1.925781 1.023438 2.09375 1.078125 C 2.257812 1.140625 2.453125 1.171875 2.671875 1.171875 C 3.734375 1.171875 4.265625 0.625 4.265625 -0.46875 L 4.265625 -0.6875 C 4.078125 -0.4375 3.835938 -0.238281 3.546875 -0.09375 C 3.253906 0.0390625 2.921875 0.109375 2.546875 0.109375 C 1.972656 0.109375 1.523438 -0.0703125 1.203125 -0.4375 C 0.890625 -0.800781 0.734375 -1.28125 0.734375 -1.875 L 0.734375 -4.953125 C 0.734375 -5.097656 0.773438 -5.21875 0.859375 -5.3125 C 0.953125 -5.40625 1.070312 -5.453125 1.21875 -5.453125 C 1.363281 -5.453125 1.484375 -5.40625 1.578125 -5.3125 C 1.671875 -5.21875 1.71875 -5.097656 1.71875 -4.953125 L 1.71875 -2.140625 C 1.71875 -1.679688 1.816406 -1.34375 2.015625 -1.125 C 2.210938 -0.90625 2.515625 -0.796875 2.921875 -0.796875 C 3.304688 -0.796875 3.625 -0.921875 3.875 -1.171875 C 4.132812 -1.421875 4.265625 -1.742188 4.265625 -2.140625 L 4.265625 -4.953125 C 4.265625 -5.097656 4.304688 -5.21875 4.390625 -5.3125 C 4.484375 -5.40625 4.601562 -5.453125 4.75 -5.453125 Z M 4.75 -5.453125 "/></g></g></g><g fill="#000000" fill-opacity="1"><g transform="translate(211.181434, 212.619406)"><g/></g></g><g fill="#000000" fill-opacity="1"><g transform="translate(220.754972, 212.619406)"><g><path d="M 6.40625 -0.640625 C 6.425781 -0.578125 6.4375 -0.507812 6.4375 -0.4375 C 6.4375 -0.300781 6.390625 -0.1875 6.296875 -0.09375 C 6.203125 -0.0078125 6.09375 0.03125 5.96875 0.03125 C 5.875 0.03125 5.785156 0.00390625 5.703125 -0.046875 C 5.628906 -0.109375 5.566406 -0.191406 5.515625 -0.296875 L 4.875 -1.8125 L 1.6875 -1.8125 L 1.0625 -0.28125 C 1.03125 -0.1875 0.972656 -0.109375 0.890625 -0.046875 C 0.816406 0.00390625 0.726562 0.03125 0.625 0.03125 C 0.476562 0.03125 0.367188 -0.00390625 0.296875 -0.078125 C 0.222656 -0.160156 0.1875 -0.265625 0.1875 -0.390625 C 0.1875 -0.421875 0.191406 -0.476562 0.203125 -0.5625 L 2.84375 -6.9375 C 2.882812 -7.039062 2.945312 -7.117188 3.03125 -7.171875 C 3.125 -7.234375 3.222656 -7.257812 3.328125 -7.25 C 3.429688 -7.25 3.523438 -7.21875 3.609375 -7.15625 C 3.691406 -7.101562 3.75 -7.03125 3.78125 -6.9375 Z M 2.078125 -2.75 L 4.484375 -2.75 L 3.28125 -5.640625 Z M 2.078125 -2.75 "/></g></g></g><g fill="#000000" fill-opacity="1"><g transform="translate(234.088282, 212.619406)"><g><path d="M 1.875 -0.5 C 1.875 -0.351562 1.820312 -0.234375 1.71875 -0.140625 C 1.613281 -0.046875 1.492188 0 1.359375 0 C 1.210938 0 1.09375 -0.046875 1 -0.140625 C 0.90625 -0.234375 0.859375 -0.351562 0.859375 -0.5 L 0.859375 -6.71875 C 0.859375 -6.863281 0.90625 -6.984375 1 -7.078125 C 1.09375 -7.171875 1.21875 -7.21875 1.375 -7.21875 C 1.507812 -7.21875 1.625 -7.171875 1.71875 -7.078125 C 1.820312 -6.984375 1.875 -6.863281 1.875 -6.71875 Z M 1.875 -0.5 "/></g></g></g></svg>