<svg xmlns="http://www.w3.org/2000/svg" xmlns:xlink="http://www.w3.org/1999/xlink" width="500" zoomAndPan="magnify" viewBox="0 0 375 374.999991" height="500" preserveAspectRatio="xMidYMid meet" version="1.0"><defs><clipPath id="dd3218180c"><path d="M 33.011719 6.984375 L 247 6.984375 L 247 367.734375 L 33.011719 367.734375 Z M 33.011719 6.984375 " clip-rule="nonzero"/></clipPath></defs><path fill="#ffffff" d="M 175.558594 340.507812 L 103.953125 340.507812 C 101.917969 340.507812 100.269531 338.855469 100.269531 336.820312 C 100.269531 334.789062 101.917969 333.136719 103.953125 333.136719 L 175.558594 333.136719 C 177.59375 333.136719 179.242188 334.789062 179.242188 336.820312 C 179.242188 338.855469 177.59375 340.507812 175.558594 340.507812 Z M 139.753906 37.359375 C 146.851562 37.359375 152.625 43.132812 152.625 50.230469 C 152.625 57.324219 146.851562 63.097656 139.753906 63.097656 C 132.65625 63.097656 126.886719 57.324219 126.886719 50.230469 C 126.886719 43.132812 132.65625 37.359375 139.753906 37.359375 Z M 223.105469 281.769531 C 218.046875 281.035156 213.042969 279.980469 208.128906 278.605469 C 207.714844 278.492188 207.296875 278.386719 206.882812 278.269531 C 205.75 277.9375 204.625 277.574219 203.503906 277.210938 C 202.554688 276.902344 201.609375 276.59375 200.671875 276.265625 C 199.742188 275.933594 198.8125 275.597656 197.886719 275.246094 C 196.683594 274.789062 195.492188 274.304688 194.304688 273.808594 C 193.597656 273.511719 192.882812 273.226562 192.179688 272.914062 C 190.265625 272.070312 188.367188 271.1875 186.5 270.242188 C 149.042969 289.179688 104.777344 276.144531 102.886719 275.570312 C 101.203125 275.0625 100.117188 273.433594 100.289062 271.6875 C 100.457031 269.933594 101.84375 268.550781 103.589844 268.378906 C 104.636719 268.269531 129.042969 265.390625 146.597656 237.257812 C 130.574219 216.613281 121.777344 190.984375 121.777344 164.796875 C 121.777344 162.8125 121.828125 160.847656 121.925781 158.890625 C 121.957031 158.234375 122.023438 157.589844 122.066406 156.933594 C 122.152344 155.640625 122.234375 154.34375 122.363281 153.058594 C 122.4375 152.285156 122.546875 151.527344 122.640625 150.761719 C 122.777344 149.605469 122.90625 148.453125 123.074219 147.308594 C 123.199219 146.496094 123.347656 145.683594 123.488281 144.871094 C 123.671875 143.792969 123.855469 142.714844 124.066406 141.648438 C 124.230469 140.816406 124.421875 139.988281 124.605469 139.160156 C 124.835938 138.136719 125.0625 137.105469 125.316406 136.085938 C 125.527344 135.246094 125.761719 134.410156 125.992188 133.578125 C 126.257812 132.589844 126.53125 131.605469 126.828125 130.628906 C 127.082031 129.785156 127.355469 128.949219 127.628906 128.117188 C 127.941406 127.167969 128.257812 126.222656 128.589844 125.285156 C 128.886719 124.445312 129.195312 123.613281 129.515625 122.78125 C 129.863281 121.867188 130.222656 120.957031 130.59375 120.054688 C 130.933594 119.21875 131.285156 118.390625 131.644531 117.570312 C 132.027344 116.691406 132.425781 115.820312 132.828125 114.957031 C 133.214844 114.128906 133.605469 113.304688 134.011719 112.484375 C 134.425781 111.644531 134.855469 110.816406 135.289062 109.988281 C 135.722656 109.167969 136.15625 108.351562 136.605469 107.542969 C 137.050781 106.742188 137.511719 105.953125 137.976562 105.167969 C 138.453125 104.355469 138.925781 103.542969 139.421875 102.742188 C 139.890625 101.984375 140.375 101.246094 140.859375 100.5 C 141.386719 99.691406 141.90625 98.882812 142.453125 98.089844 C 142.933594 97.386719 143.433594 96.703125 143.925781 96.015625 C 144.511719 95.203125 145.089844 94.386719 145.695312 93.585938 C 146.167969 92.960938 146.664062 92.351562 147.148438 91.734375 C 147.804688 90.902344 148.453125 90.066406 149.128906 89.25 C 149.550781 88.746094 149.992188 88.257812 150.421875 87.761719 C 151.199219 86.863281 151.96875 85.957031 152.765625 85.082031 C 152.847656 84.992188 152.933594 84.90625 153.019531 84.816406 C 156.34375 81.199219 159.898438 77.804688 163.652344 74.621094 C 163.914062 74.398438 164.164062 74.164062 164.429688 73.945312 C 165.453125 73.09375 166.503906 72.273438 167.554688 71.453125 C 167.945312 71.152344 168.328125 70.835938 168.722656 70.535156 C 169.738281 69.765625 170.777344 69.027344 171.816406 68.289062 C 172.269531 67.96875 172.714844 67.640625 173.171875 67.324219 C 174.199219 66.617188 175.253906 65.9375 176.304688 65.261719 C 176.789062 64.949219 177.273438 64.628906 177.765625 64.324219 C 178.816406 63.667969 179.890625 63.039062 180.960938 62.417969 C 181.476562 62.121094 181.980469 61.820312 182.5 61.535156 C 183.582031 60.929688 184.679688 60.34375 185.78125 59.773438 C 186.304688 59.503906 186.828125 59.230469 187.359375 58.964844 C 188.476562 58.410156 189.601562 57.871094 190.738281 57.347656 C 191.269531 57.101562 191.808594 56.855469 192.347656 56.621094 C 193.5 56.109375 194.660156 55.621094 195.828125 55.144531 C 196.367188 54.929688 196.902344 54.71875 197.4375 54.511719 C 198.632812 54.046875 199.835938 53.601562 201.046875 53.179688 C 201.570312 52.992188 202.101562 52.816406 202.632812 52.640625 C 203.871094 52.222656 205.117188 51.824219 206.375 51.449219 C 206.882812 51.296875 207.402344 51.15625 207.914062 51.011719 C 209.207031 50.648438 210.503906 50.292969 211.8125 49.972656 C 212.289062 49.855469 212.769531 49.75 213.242188 49.640625 C 214.605469 49.324219 215.972656 49.015625 217.355469 48.75 C 217.765625 48.667969 218.179688 48.605469 218.589844 48.527344 C 220.050781 48.257812 221.511719 48.003906 222.992188 47.789062 C 223.273438 47.746094 223.5625 47.71875 223.847656 47.679688 C 225.460938 47.460938 227.078125 47.253906 228.710938 47.097656 C 228.65625 46.296875 228.566406 45.507812 228.4375 44.726562 L 228.433594 44.707031 C 228.304688 43.9375 228.140625 43.183594 227.945312 42.441406 L 227.929688 42.375 C 227.734375 41.652344 227.507812 40.9375 227.253906 40.242188 L 227.210938 40.125 C 226.957031 39.449219 226.675781 38.785156 226.367188 38.140625 L 226.28125 37.953125 C 225.976562 37.335938 225.652344 36.730469 225.300781 36.140625 C 225.25 36.054688 225.199219 35.972656 225.144531 35.886719 C 224.804688 35.328125 224.445312 34.78125 224.058594 34.253906 C 223.984375 34.144531 223.898438 34.039062 223.820312 33.929688 C 223.449219 33.433594 223.058594 32.953125 222.65625 32.484375 C 222.539062 32.355469 222.421875 32.226562 222.304688 32.101562 C 221.914062 31.671875 221.511719 31.253906 221.09375 30.851562 C 220.9375 30.703125 220.773438 30.558594 220.617188 30.414062 C 220.214844 30.050781 219.804688 29.695312 219.378906 29.355469 C 219.179688 29.195312 218.964844 29.046875 218.761719 28.894531 C 218.359375 28.589844 217.949219 28.292969 217.527344 28.015625 C 217.273438 27.851562 217.011719 27.703125 216.753906 27.542969 C 216.355469 27.304688 215.957031 27.0625 215.542969 26.84375 C 215.238281 26.683594 214.921875 26.542969 214.613281 26.394531 C 214.222656 26.210938 213.835938 26.015625 213.433594 25.851562 C 213.078125 25.703125 212.707031 25.582031 212.34375 25.449219 C 211.96875 25.316406 211.597656 25.171875 211.214844 25.054688 C 210.796875 24.925781 210.363281 24.832031 209.933594 24.726562 C 209.589844 24.640625 209.25 24.539062 208.898438 24.46875 C 208.386719 24.367188 207.863281 24.300781 207.339844 24.230469 C 207.058594 24.191406 206.78125 24.132812 206.496094 24.105469 C 205.679688 24.023438 204.851562 23.980469 204.015625 23.980469 L 75.492188 23.980469 C 61.832031 23.980469 50.71875 35.097656 50.71875 48.757812 L 50.71875 326.234375 C 50.71875 339.898438 61.832031 351.011719 75.492188 351.011719 L 204.015625 351.011719 C 217.675781 351.011719 228.792969 339.898438 228.792969 326.234375 L 228.792969 282.457031 C 226.992188 282.285156 225.195312 282.070312 223.402344 281.816406 C 223.304688 281.800781 223.207031 281.785156 223.105469 281.769531 " fill-opacity="1" fill-rule="nonzero"/><g clip-path="url(#dd3218180c)"><path fill="#ffffff" d="M 240.550781 283.03125 C 240.378906 283.03125 240.203125 283.042969 240.027344 283.042969 C 239.644531 283.042969 239.265625 283.011719 238.890625 283.011719 C 237.984375 283 237.089844 283.007812 236.160156 282.976562 L 236.160156 326.234375 C 236.160156 343.960938 221.742188 358.378906 204.015625 358.378906 L 75.492188 358.378906 C 57.769531 358.378906 43.351562 343.960938 43.351562 326.234375 L 43.351562 48.757812 C 43.351562 31.03125 57.769531 16.613281 75.492188 16.613281 L 204.015625 16.613281 C 221.023438 16.613281 234.988281 29.890625 236.089844 46.621094 C 237.371094 46.574219 238.574219 46.554688 239.757812 46.550781 C 239.847656 46.550781 239.933594 46.542969 240.027344 46.542969 C 240.101562 46.542969 240.175781 46.550781 240.253906 46.550781 C 241.847656 46.554688 243.429688 46.59375 245.078125 46.671875 C 245.445312 46.6875 245.8125 46.683594 246.175781 46.703125 L 246.175781 45.746094 C 246.175781 24.371094 228.789062 6.984375 207.417969 6.984375 L 72.09375 6.984375 C 50.722656 6.984375 33.332031 24.371094 33.332031 45.746094 L 33.332031 329.246094 C 33.332031 350.617188 50.722656 368.003906 72.09375 368.003906 L 207.417969 368.003906 C 228.789062 368.003906 246.175781 350.617188 246.175781 329.246094 L 246.175781 282.886719 C 245.34375 282.925781 244.5 282.925781 243.664062 282.953125 C 242.625 282.988281 241.570312 283.023438 240.550781 283.03125 " fill-opacity="1" fill-rule="nonzero"/></g><path fill="#ffffff" d="M 180.375 95.535156 C 180.375 93.042969 181.773438 90.824219 184.023438 89.753906 C 186.273438 88.679688 188.875 88.988281 190.816406 90.558594 L 192.09375 91.59375 C 196.902344 95.488281 200.988281 99.839844 204.238281 104.527344 C 224.777344 134.144531 224.785156 169.308594 224.726562 172.871094 C 224.992188 175.832031 224.023438 178.785156 222.042969 181.007812 C 220 183.300781 217.066406 184.617188 213.992188 184.617188 L 212.46875 184.617188 L 212.46875 232.980469 C 212.46875 238.410156 208.050781 242.828125 202.625 242.828125 L 190.21875 242.828125 C 184.792969 242.828125 180.375 238.410156 180.375 232.980469 Z M 240.667969 94.195312 C 240.667969 90.441406 243.726562 87.386719 247.480469 87.386719 L 254.113281 87.386719 C 257.867188 87.386719 260.925781 90.441406 260.925781 94.195312 L 260.925781 119.773438 L 261.988281 119.773438 L 261.988281 94.195312 C 261.988281 90.441406 265.039062 87.386719 268.796875 87.386719 L 275.429688 87.386719 C 279.183594 87.386719 282.238281 90.441406 282.238281 94.195312 L 282.238281 119.773438 L 283.300781 119.773438 L 283.300781 94.195312 C 283.300781 90.441406 286.355469 87.386719 290.109375 87.386719 L 296.742188 87.386719 C 300.5 87.386719 303.554688 90.441406 303.554688 94.195312 L 303.554688 140.167969 C 303.554688 148.878906 298.058594 156.746094 289.886719 159.75 C 288.835938 160.136719 288.160156 161.035156 288.160156 162.035156 L 288.160156 232.609375 C 288.160156 238.035156 283.742188 242.453125 278.316406 242.453125 L 265.910156 242.453125 C 260.484375 242.453125 256.066406 238.035156 256.066406 232.609375 L 256.066406 162.035156 C 256.066406 161.035156 255.386719 160.136719 254.335938 159.75 C 246.164062 156.746094 240.667969 148.878906 240.667969 140.167969 Z M 129.144531 164.796875 C 129.144531 190.167969 137.949219 214.972656 153.933594 234.648438 C 154.898438 235.839844 155.027344 237.507812 154.253906 238.832031 C 143.285156 257.589844 129.339844 266.863281 118.96875 271.414062 C 134.921875 273.824219 161.796875 275.140625 184.761719 262.839844 C 185.304688 262.550781 185.902344 262.402344 186.5 262.402344 C 187.09375 262.402344 187.683594 262.546875 188.222656 262.832031 C 202.023438 270.140625 217.367188 274.441406 232.984375 275.441406 C 233.335938 275.464844 233.671875 275.472656 234.019531 275.492188 C 235.773438 275.585938 237.53125 275.640625 239.289062 275.652344 C 239.679688 275.65625 240.074219 275.667969 240.464844 275.664062 C 241.773438 275.660156 243.066406 275.617188 244.359375 275.566406 C 245.992188 275.496094 247.664062 275.398438 249.4375 275.25 C 306.1875 270.449219 350.910156 222.761719 350.910156 164.796875 C 350.910156 106.832031 306.195312 59.144531 249.453125 54.339844 C 247.835938 54.203125 246.296875 54.105469 244.804688 54.03125 C 243.226562 53.964844 241.640625 53.914062 240.042969 53.914062 L 240.027344 53.914062 C 238.507812 53.914062 237 53.964844 235.496094 54.027344 C 234.617188 54.066406 233.707031 54.117188 232.722656 54.179688 C 174.980469 57.957031 129.144531 106.109375 129.144531 164.796875 " fill-opacity="1" fill-rule="nonzero"/></svg>